<svg xmlns="http://www.w3.org/2000/svg" width="239" height="98" fill="none" viewBox="0 0 239 98">
  <rect width="236.017" height="97" x="1.491" y=".5" fill="#F9F9F9" stroke="#E6E6E6" rx="17.5"/>
  <path fill="#000" d="M170.912 39.64v-1.992h4.512V55h-2.208V39.64h-2.304Zm11.432 6.336c-.896-.352-1.584-.864-2.064-1.536s-.72-1.488-.72-2.448c0-.864.216-1.64.648-2.328.432-.704 1.072-1.256 1.92-1.656.864-.416 1.904-.624 3.12-.624 1.216 0 2.248.208 3.096.624.864.4 1.512.952 1.944 1.656.448.688.672 1.464.672 2.328 0 .928-.248 1.744-.744 2.448-.496.688-1.176 1.2-2.04 1.536.992.304 1.776.84 2.352 1.608.592.752.888 1.664.888 2.736 0 1.04-.256 1.952-.768 2.736-.512.768-1.24 1.368-2.184 1.8-.928.416-2 .624-3.216.624-1.216 0-2.288-.208-3.216-.624-.912-.432-1.624-1.032-2.136-1.8-.512-.784-.768-1.696-.768-2.736 0-1.072.288-1.992.864-2.76.575-.768 1.36-1.296 2.352-1.584Zm6.504-3.72c0-.976-.32-1.728-.96-2.256-.64-.528-1.52-.792-2.64-.792-1.104 0-1.976.264-2.616.792-.64.528-.96 1.288-.96 2.28 0 .896.328 1.616.984 2.16.672.544 1.536.816 2.592.816 1.072 0 1.936-.272 2.592-.816.672-.56 1.008-1.288 1.008-2.184Zm-3.6 4.68c-1.184 0-2.152.28-2.904.84-.752.544-1.129 1.368-1.129 2.472 0 1.024.361 1.848 1.081 2.472.736.624 1.72.936 2.952.936s2.208-.312 2.928-.936c.72-.624 1.08-1.448 1.08-2.472 0-1.072-.368-1.888-1.104-2.448-.736-.576-1.704-.864-2.904-.864Zm11.684 5.04-2.688 6.456h-1.464l1.752-6.456h2.4Zm1.878 1.272c2.032-1.632 3.624-2.968 4.776-4.008 1.152-1.056 2.12-2.152 2.904-3.288.8-1.152 1.2-2.28 1.2-3.384 0-1.04-.256-1.856-.768-2.448-.496-.608-1.304-.912-2.424-.912-1.088 0-1.936.344-2.544 1.032-.592.672-.912 1.576-.96 2.712h-2.112c.064-1.792.608-3.176 1.632-4.152s2.344-1.464 3.96-1.464c1.648 0 2.952.456 3.912 1.368.976.912 1.464 2.168 1.464 3.768 0 1.328-.4 2.624-1.2 3.888a17.127 17.127 0 0 1-2.688 3.312c-1.008.944-2.296 2.048-3.864 3.312h8.256v1.824H198.81v-1.56Zm25.133-13.704h-8.424v5.472c.368-.512.912-.928 1.632-1.248a5.437 5.437 0 0 1 2.328-.504c1.328 0 2.408.28 3.24.84.832.544 1.424 1.256 1.776 2.136a6.97 6.97 0 0 1 .552 2.76c0 1.152-.216 2.184-.648 3.096a4.898 4.898 0 0 1-1.992 2.16c-.88.528-1.976.792-3.288.792-1.68 0-3.04-.432-4.08-1.296-1.04-.864-1.672-2.016-1.896-3.456h2.136c.208.912.648 1.624 1.32 2.136s1.52.768 2.544.768c1.264 0 2.216-.376 2.856-1.128.64-.768.96-1.776.96-3.024s-.32-2.208-.96-2.88c-.64-.688-1.584-1.032-2.832-1.032-.848 0-1.592.208-2.232.624-.624.4-1.08.952-1.368 1.656h-2.064v-9.792h10.44v1.92Z"/>
  <rect width="70" height="33" x="86" y="33" fill="#23C552" rx="8"/>
  <path fill="#23C552" d="m166 50-10.5 6.062V43.938L166 50Z"/>
  <path fill="#fff" d="M104.464 50.114h-4.444v4.554h-2.332v-4.554h-4.444v-2.112h4.444v-4.554h2.332v4.554h4.444v2.112Zm3.231-6.864v-2.288h4.576V57h-2.53V43.25h-2.046Zm11.101 10.736-2.662 6.072h-1.628l1.562-6.072h2.728Zm3.248-.396c1.408-1.217 2.515-2.215 3.322-2.992a13.636 13.636 0 0 0 2.046-2.464c.543-.85.814-1.701.814-2.552 0-.88-.213-1.57-.638-2.068-.411-.499-1.063-.748-1.958-.748-.865 0-1.54.279-2.024.836-.469.543-.719 1.276-.748 2.2h-2.42c.044-1.672.543-2.948 1.496-3.828.968-.895 2.193-1.342 3.674-1.342 1.599 0 2.845.44 3.74 1.32.909.88 1.364 2.053 1.364 3.52 0 1.056-.271 2.075-.814 3.058a12.137 12.137 0 0 1-1.914 2.618c-.733.763-1.672 1.65-2.816 2.662l-.99.88h6.974v2.09H120.46v-1.826l1.584-1.364Zm21.651-10.472h-7.37v4.378c.308-.41.763-.755 1.364-1.034a4.697 4.697 0 0 1 1.958-.418c1.232 0 2.229.264 2.992.792.777.528 1.327 1.195 1.65 2.002.337.807.506 1.657.506 2.552 0 1.085-.213 2.053-.638 2.904a4.593 4.593 0 0 1-1.87 1.98c-.821.484-1.833.726-3.036.726-1.599 0-2.882-.396-3.85-1.188-.968-.792-1.547-1.84-1.738-3.146h2.442c.161.69.521 1.24 1.078 1.65.557.396 1.254.594 2.09.594 1.041 0 1.819-.315 2.332-.946.528-.63.792-1.467.792-2.508 0-1.056-.264-1.863-.792-2.42-.528-.572-1.305-.858-2.332-.858-.719 0-1.327.183-1.826.55-.484.352-.836.836-1.056 1.452h-2.376v-9.262h9.68v2.2Z"/>
</svg>
