<?xml version="1.0" encoding="UTF-8"?><svg id="Calque_1" xmlns="http://www.w3.org/2000/svg" xmlns:xlink="http://www.w3.org/1999/xlink" viewBox="0 0 1000 1000"><defs><style>.cls-1{fill:url(#Dégradé_sans_nom_38);}.cls-2{fill:url(#Dégradé_sans_nom_4);}</style><linearGradient id="Dégradé_sans_nom_38" x1="642.23" y1="539.16" x2="751.19" y2="175.28" gradientUnits="userSpaceOnUse"><stop offset="0" stop-color="#c8194a"/><stop offset=".08" stop-color="#bc1745"/><stop offset=".3" stop-color="#a1133b"/><stop offset=".53" stop-color="#8e1134"/><stop offset=".76" stop-color="#820f30"/><stop offset="1" stop-color="#7f0f2f"/></linearGradient><linearGradient id="Dégradé_sans_nom_4" x1="500" y1="170.47" x2="434.21" y2="781.05" gradientUnits="userSpaceOnUse"><stop offset="0" stop-color="#c8194a"/><stop offset="1" stop-color="#7f0f2f"/></linearGradient></defs><path class="cls-1" d="M895.79,201.17c-10.21-11.34-20.99-21.08-31.89-28.87-106.48-76.06-277.08-66.54-390.6,7.37,242.84-106.53,224.84,184.64,182.42,262.54-64.36,118.21-210.81,125.43-210.81,125.43,290.93,166.15,503.71-12.48,511.59-175.34,3.18-65.8-7.88-131.34-60.71-191.13Z"/><path class="cls-2" d="M863.9,172.3c10.9,7.79,21.79,17.44,31.89,28.87C808.08,91.49,673.11,21.25,521.75,21.25,257.34,21.25,43,235.59,43,500s214.34,478.75,478.75,478.75c127.75,0,243.8-50.03,329.63-131.57-147.67,39.36-304.36,1.64-405.16-102.23-125.88-129.72-157.9-355.97-40.72-504.36,18.6-23.55,41.68-43.95,67.79-60.93,113.52-73.91,284.12-83.43,390.6-7.37Z"/></svg>