<?xml version="1.0" encoding="UTF-8"?><svg id="CustomDirecte_-_Accounts" xmlns="http://www.w3.org/2000/svg" xmlns:xlink="http://www.w3.org/1999/xlink" viewBox="0 0 1000 1000"><defs><style>.cls-1{fill:#fff;}.cls-2{fill:#a3133c;}.cls-3{fill:url(#Dégradé_sans_nom_64);}.cls-4{fill:#fe90a3;}.cls-5{opacity:.2;}.cls-5,.cls-6{isolation:isolate;}.cls-7{fill:#7f0f2f;}.cls-6{opacity:.1;}.cls-8{fill:#c8194a;}</style><linearGradient id="Dégradé_sans_nom_64" x1="153.96" y1="-345.93" x2="464" y2="191.05" gradientTransform="translate(0 752)" gradientUnits="userSpaceOnUse"><stop offset="0" stop-color="#c8194a"/><stop offset=".5" stop-color="#a3133c"/><stop offset="1" stop-color="#7f0f2f"/></linearGradient></defs><g><path class="cls-4" d="m425.71,87.88h-162.72c-26.01,0-47.09,17.72-47.09,39.59v164.16h0v508.93h256.89V127.47c0-21.86-21.08-39.59-47.09-39.59Z"/><path class="cls-8" d="m713.7,206.05l-140.92-81.36c-22.52-13-49.64-8.2-60.57,10.74L215.9,648.66v151.85s208.94.05,208.94.05l309.85-536.68c10.93-18.93,1.53-44.82-20.99-57.83Z"/><path class="cls-2" d="m896.77,448.67l-81.36-140.92c-13-22.52-38.89-31.92-57.83-20.99L215.9,599.51v201s165.56.05,165.56.05l504.57-291.31c18.93-10.93,23.74-38.05,10.74-60.57Z"/><path class="cls-7" d="m888.99,543.77H215.9v256.79h673.09c21.86,0,39.59-21.07,39.59-47.07v-162.65c0-26-17.72-47.07-39.59-47.07Z"/></g><g><path class="cls-6" d="m590.25,800.56v-345.57c-.07-21.83-17.75-39.51-39.59-39.59H215.9v385.15h374.35Z"/><path class="cls-5" d="m568.65,800.56v-323.97c-.07-21.83-17.75-39.51-39.59-39.59H216.9l-.67,363.56h352.42Z"/><path class="cls-5" d="m568.65,800.56v-323.97c-.07-21.83-17.75-39.51-39.59-39.59H216.9l-.73,363.56h352.48Z"/></g><g><path class="cls-3" d="m111.01,437h395.95c21.86,0,39.59,17.72,39.59,39.59v395.95c0,21.86-17.72,39.59-39.59,39.59H111.01c-21.86,0-39.59-17.72-39.59-39.59v-395.95c0-21.86,17.72-39.59,39.59-39.59Z"/><path class="cls-1" d="m489.4,476.06c9.97,0,18.08,8.11,18.08,18.08v360.85c0,9.97-8.11,18.08-18.08,18.08H128.56c-9.97,0-18.08-8.11-18.08-18.08v-360.85c0-9.97,8.11-18.08,18.08-18.08h360.85m0-18H128.56c-19.92,0-36.08,16.15-36.08,36.08v360.85c0,19.92,16.15,36.08,36.08,36.08h360.85c19.92,0,36.08-16.15,36.08-36.08v-360.85c0-19.92-16.15-36.08-36.08-36.08h0Z"/><g><circle class="cls-1" cx="309.19" cy="603.28" r="69.93"/><path class="cls-1" d="m424.47,695.86c-27.3-51.86-71.4-2.67-110.88-.55-1.48.15-2.95.23-4.4.26v-.12c-1.45-.03-2.91-.12-4.4-.26-39.48-2.12-83.59-51.31-110.88.55-21.47,40.07-36.59,125.12,29.01,130.14,28.76-.1,57.51-.03,86.27-.03v.12c28.76,0,57.51-.06,86.27.03,65.6-5.02,50.48-90.07,29.01-130.14Z"/></g></g></svg>