<svg xmlns="http://www.w3.org/2000/svg" width="309" height="60" fill="none" viewBox="0 0 309 60">
  <rect width="307.821" height="59" x=".679" y=".5" fill="#F9F9F9" stroke="#E6E6E6" rx="17.5"/>
  <rect width="281" height="31" x="14" y="15" fill="#515151" rx="15.5"/>
  <path fill="#fff" fill-rule="evenodd" d="m40.558 40.713-6.257.51-.236-6.338.067.06 14.173-15.962a2 2 0 0 1 2.824-.168l3.499 3.108a2 2 0 0 1 .168 2.823L40.623 40.708l-.032.035-.033-.03Z" clip-rule="evenodd"/>
  <path fill="#515151" d="m46.106 20.823.96-1.081 7.086 6.291-.96 1.082-7.086-6.292Z"/>
  <path fill="#515151" d="m48.41 22.668.766.68L36.79 37.297l-.767-.68 12.385-13.948Z"/>
  <path fill="#fff" d="M72.304 28.192c0 .565-.133 1.099-.4 1.6-.266.501-.693.912-1.28 1.232-.587.31-1.338.464-2.256.464h-2.016V36h-1.824V24.88h3.84c.854 0 1.574.15 2.16.448.597.288 1.04.683 1.328 1.184a3.22 3.22 0 0 1 .448 1.68ZM68.368 30c.694 0 1.21-.155 1.552-.464.341-.32.512-.768.512-1.344 0-1.216-.688-1.824-2.064-1.824h-2.016V30h2.016Zm13.756 1.376c0 .33-.022.63-.064.896h-6.736c.053.704.314 1.27.784 1.696.47.427 1.045.64 1.728.64.981 0 1.674-.41 2.08-1.232h1.968a3.997 3.997 0 0 1-1.456 2c-.694.512-1.558.768-2.592.768-.843 0-1.6-.187-2.272-.56a4.185 4.185 0 0 1-1.568-1.6c-.374-.693-.56-1.493-.56-2.4 0-.907.181-1.701.544-2.384a3.936 3.936 0 0 1 1.552-1.6c.672-.373 1.44-.56 2.304-.56.832 0 1.573.181 2.224.544a3.84 3.84 0 0 1 1.52 1.536c.362.65.544 1.403.544 2.256ZM80.22 30.8c-.01-.672-.25-1.21-.72-1.616-.47-.405-1.05-.608-1.744-.608-.63 0-1.168.203-1.616.608-.448.395-.715.933-.8 1.616h4.88Zm5.523-2.336a2.82 2.82 0 0 1 1.056-1.04c.448-.256.976-.384 1.584-.384v1.888h-.464c-.715 0-1.259.181-1.632.544-.363.363-.544.992-.544 1.888V36h-1.824v-8.816h1.824v1.28Zm7.516 7.68c-.693 0-1.317-.123-1.872-.368-.544-.256-.976-.597-1.296-1.024a2.59 2.59 0 0 1-.512-1.456h1.888c.032.373.208.688.528.944.331.245.742.368 1.232.368.512 0 .907-.096 1.184-.288.288-.203.432-.459.432-.768 0-.33-.16-.576-.48-.736-.309-.16-.805-.336-1.488-.528a14.42 14.42 0 0 1-1.616-.528 2.9 2.9 0 0 1-1.088-.784c-.298-.352-.448-.816-.448-1.392 0-.47.139-.896.416-1.28.278-.395.672-.704 1.184-.928.523-.224 1.12-.336 1.792-.336 1.003 0 1.808.256 2.416.768.619.501.95 1.19.992 2.064H94.7a1.3 1.3 0 0 0-.48-.944c-.288-.235-.677-.352-1.168-.352-.48 0-.848.09-1.104.272a.842.842 0 0 0-.384.72.78.78 0 0 0 .256.592c.171.16.379.288.624.384.246.085.608.197 1.088.336.64.17 1.163.347 1.568.528.416.17.774.427 1.072.768.299.341.454.795.464 1.36 0 .501-.138.95-.416 1.344-.277.395-.672.704-1.184.928-.501.224-1.093.336-1.776.336Zm9.171 0c-.832 0-1.584-.187-2.256-.56a4.152 4.152 0 0 1-1.584-1.6c-.384-.693-.576-1.493-.576-2.4 0-.896.198-1.69.592-2.384a4.09 4.09 0 0 1 1.616-1.6c.683-.373 1.446-.56 2.288-.56.843 0 1.606.187 2.288.56a4.083 4.083 0 0 1 1.616 1.6c.395.693.592 1.488.592 2.384 0 .896-.202 1.69-.608 2.384a4.25 4.25 0 0 1-1.664 1.616 4.78 4.78 0 0 1-2.304.56Zm0-1.584c.47 0 .907-.112 1.312-.336.416-.224.752-.56 1.008-1.008.256-.448.384-.992.384-1.632 0-.64-.122-1.179-.368-1.616a2.466 2.466 0 0 0-.976-1.008 2.666 2.666 0 0 0-1.312-.336c-.469 0-.906.112-1.312.336-.394.224-.709.56-.944 1.008-.234.437-.352.976-.352 1.616 0 .95.24 1.685.72 2.208.491.512 1.104.768 1.84.768Zm10.827-7.52c.694 0 1.312.144 1.856.432.555.288.987.715 1.296 1.28.31.565.464 1.248.464 2.048V36h-1.808v-4.928c0-.79-.197-1.392-.592-1.808-.394-.427-.933-.64-1.616-.64-.682 0-1.226.213-1.632.64-.394.416-.592 1.019-.592 1.808V36h-1.824v-8.816h1.824v1.008a3.04 3.04 0 0 1 1.136-.848c.47-.203.966-.304 1.488-.304Zm10.391 0c.693 0 1.312.144 1.856.432.555.288.987.715 1.296 1.28.309.565.464 1.248.464 2.048V36h-1.808v-4.928c0-.79-.197-1.392-.592-1.808-.395-.427-.933-.64-1.616-.64s-1.227.213-1.632.64c-.395.416-.592 1.019-.592 1.808V36H119.2v-8.816h1.824v1.008a3.033 3.033 0 0 1 1.136-.848 3.71 3.71 0 0 1 1.488-.304Zm5.335 4.512c0-.885.181-1.67.544-2.352a4.056 4.056 0 0 1 3.616-2.16c.693 0 1.296.139 1.808.416.522.267.938.603 1.248 1.008v-1.28h1.84V36h-1.84v-1.312c-.31.416-.731.763-1.264 1.04-.534.277-1.142.416-1.824.416a3.914 3.914 0 0 1-2.08-.576 4.268 4.268 0 0 1-1.504-1.632c-.363-.704-.544-1.499-.544-2.384Zm7.216.032c0-.608-.128-1.136-.384-1.584a2.591 2.591 0 0 0-.976-1.024 2.577 2.577 0 0 0-1.312-.352c-.47 0-.907.117-1.312.352-.406.224-.736.56-.992 1.008-.246.437-.368.96-.368 1.568 0 .608.122 1.141.368 1.6.256.459.586.81.992 1.056a2.63 2.63 0 0 0 1.312.352c.469 0 .906-.117 1.312-.352.405-.235.73-.576.976-1.024.256-.459.384-.992.384-1.6Zm6.059-7.424V36h-1.824V24.16h1.824Zm3.323 1.856a1.13 1.13 0 0 1-.832-.336 1.13 1.13 0 0 1-.336-.832c0-.33.112-.608.336-.832a1.13 1.13 0 0 1 .832-.336c.32 0 .592.112.816.336.224.224.336.501.336.832 0 .33-.112.608-.336.832a1.11 1.11 0 0 1-.816.336Zm.896 1.168V36h-1.824v-8.816h1.824Zm5.595 8.96c-.693 0-1.317-.123-1.872-.368-.544-.256-.976-.597-1.296-1.024a2.588 2.588 0 0 1-.512-1.456h1.888c.032.373.208.688.528.944.331.245.741.368 1.232.368.512 0 .907-.096 1.184-.288.288-.203.432-.459.432-.768 0-.33-.16-.576-.48-.736-.309-.16-.805-.336-1.488-.528-.661-.181-1.2-.357-1.616-.528a2.898 2.898 0 0 1-1.088-.784c-.299-.352-.448-.816-.448-1.392 0-.47.139-.896.416-1.28.277-.395.672-.704 1.184-.928.523-.224 1.12-.336 1.792-.336 1.003 0 1.808.256 2.416.768.619.501.949 1.19.992 2.064h-1.824a1.3 1.3 0 0 0-.48-.944c-.288-.235-.677-.352-1.168-.352-.48 0-.848.09-1.104.272a.842.842 0 0 0-.384.72c0 .235.085.432.256.592.171.16.379.288.624.384.245.085.608.197 1.088.336.64.17 1.163.347 1.568.528.416.17.773.427 1.072.768.299.341.453.795.464 1.36 0 .501-.139.95-.416 1.344-.277.395-.672.704-1.184.928-.501.224-1.093.336-1.776.336Zm13.427-4.768c0 .33-.022.63-.064.896h-6.736c.053.704.314 1.27.784 1.696.469.427 1.045.64 1.728.64.981 0 1.674-.41 2.08-1.232h1.968a4 4 0 0 1-1.456 2c-.694.512-1.558.768-2.592.768-.843 0-1.6-.187-2.272-.56a4.18 4.18 0 0 1-1.568-1.6c-.374-.693-.56-1.493-.56-2.4 0-.907.181-1.701.544-2.384a3.93 3.93 0 0 1 1.552-1.6c.672-.373 1.44-.56 2.304-.56.832 0 1.573.181 2.224.544a3.84 3.84 0 0 1 1.52 1.536c.362.65.544 1.403.544 2.256Zm-1.904-.576c-.011-.672-.251-1.21-.72-1.616-.47-.405-1.051-.608-1.744-.608-.63 0-1.168.203-1.616.608-.448.395-.715.933-.8 1.616h4.88Zm5.523-2.336a2.811 2.811 0 0 1 1.056-1.04c.448-.256.976-.384 1.584-.384v1.888h-.464c-.715 0-1.259.181-1.632.544-.363.363-.544.992-.544 1.888V36h-1.824v-8.816h1.824v1.28Zm10.297-2.112v3.264h3.84v1.488h-3.84v3.408h4.32V36h-6.144V24.864h6.144v1.488h-4.32Zm5.958 5.232c0-.907.182-1.701.544-2.384a3.976 3.976 0 0 1 1.536-1.6c.651-.373 1.398-.56 2.24-.56 1.067 0 1.947.256 2.64.768.704.501 1.179 1.221 1.424 2.16h-1.968a2.081 2.081 0 0 0-.768-1.024c-.352-.245-.794-.368-1.328-.368-.746 0-1.344.267-1.792.8-.437.523-.656 1.259-.656 2.208 0 .95.219 1.69.656 2.224.448.533 1.046.8 1.792.8 1.056 0 1.755-.464 2.096-1.392h1.968c-.256.896-.736 1.61-1.44 2.144-.704.523-1.578.784-2.624.784-.842 0-1.589-.187-2.24-.56a4.115 4.115 0 0 1-1.536-1.6c-.362-.693-.544-1.493-.544-2.4Zm14.026 4.56c-.832 0-1.584-.187-2.256-.56a4.151 4.151 0 0 1-1.584-1.6c-.384-.693-.576-1.493-.576-2.4 0-.896.197-1.69.592-2.384a4.09 4.09 0 0 1 1.616-1.6c.683-.373 1.445-.56 2.288-.56.843 0 1.605.187 2.288.56a4.09 4.09 0 0 1 1.616 1.6c.395.693.592 1.488.592 2.384 0 .896-.203 1.69-.608 2.384a4.25 4.25 0 0 1-1.664 1.616 4.78 4.78 0 0 1-2.304.56Zm0-1.584a2.67 2.67 0 0 0 1.312-.336c.416-.224.752-.56 1.008-1.008.256-.448.384-.992.384-1.632 0-.64-.123-1.179-.368-1.616a2.473 2.473 0 0 0-.976-1.008 2.67 2.67 0 0 0-1.312-.336 2.67 2.67 0 0 0-1.312.336c-.395.224-.709.56-.944 1.008-.235.437-.352.976-.352 1.616 0 .95.24 1.685.72 2.208.491.512 1.104.768 1.84.768Zm8.203-10.4V36h-1.824V24.16h1.824Zm10.475 7.216c0 .33-.021.63-.064.896h-6.736c.053.704.315 1.27.784 1.696.469.427 1.045.64 1.728.64.981 0 1.675-.41 2.08-1.232h1.968a4 4 0 0 1-1.456 2c-.693.512-1.557.768-2.592.768-.843 0-1.6-.187-2.272-.56a4.187 4.187 0 0 1-1.568-1.6c-.373-.693-.56-1.493-.56-2.4 0-.907.181-1.701.544-2.384a3.936 3.936 0 0 1 1.552-1.6c.672-.373 1.44-.56 2.304-.56.832 0 1.573.181 2.224.544a3.83 3.83 0 0 1 1.52 1.536c.363.65.544 1.403.544 2.256Zm-1.904-.576c-.011-.672-.251-1.21-.72-1.616-.469-.405-1.051-.608-1.744-.608-.629 0-1.168.203-1.616.608-.448.395-.715.933-.8 1.616h4.88Zm7.331-5.92c1.184 0 2.219.23 3.104.688a4.744 4.744 0 0 1 2.064 1.952c.491.843.736 1.83.736 2.96s-.245 2.112-.736 2.944c-.48.832-1.168 1.472-2.064 1.92-.885.437-1.92.656-3.104.656h-3.632V24.88h3.632Zm0 9.632c1.301 0 2.299-.352 2.992-1.056.693-.704 1.04-1.696 1.04-2.976 0-1.29-.347-2.299-1.04-3.024-.693-.725-1.691-1.088-2.992-1.088h-1.808v8.144h1.808Zm8.64-8.496a1.13 1.13 0 0 1-.832-.336 1.13 1.13 0 0 1-.336-.832c0-.33.112-.608.336-.832a1.13 1.13 0 0 1 .832-.336c.32 0 .592.112.816.336.224.224.336.501.336.832 0 .33-.112.608-.336.832a1.11 1.11 0 0 1-.816.336Zm.896 1.168V36h-1.824v-8.816h1.824Zm4.218 1.28a2.826 2.826 0 0 1 1.056-1.04c.448-.256.976-.384 1.584-.384v1.888h-.464c-.714 0-1.258.181-1.632.544-.362.363-.544.992-.544 1.888V36h-1.824v-8.816h1.824v1.28Zm12.397 2.912c0 .33-.021.63-.064.896h-6.736c.053.704.315 1.27.784 1.696.469.427 1.045.64 1.728.64.981 0 1.675-.41 2.08-1.232h1.968a4 4 0 0 1-1.456 2c-.693.512-1.557.768-2.592.768-.843 0-1.6-.187-2.272-.56a4.187 4.187 0 0 1-1.568-1.6c-.373-.693-.56-1.493-.56-2.4 0-.907.181-1.701.544-2.384a3.936 3.936 0 0 1 1.552-1.6c.672-.373 1.44-.56 2.304-.56.832 0 1.573.181 2.224.544a3.83 3.83 0 0 1 1.52 1.536c.363.65.544 1.403.544 2.256Zm-1.904-.576c-.011-.672-.251-1.21-.72-1.616-.469-.405-1.051-.608-1.744-.608-.629 0-1.168.203-1.616.608-.448.395-.715.933-.8 1.616h4.88Zm3.091.784c0-.907.181-1.701.544-2.384a3.963 3.963 0 0 1 1.536-1.6c.651-.373 1.397-.56 2.24-.56 1.067 0 1.947.256 2.64.768.704.501 1.179 1.221 1.424 2.16h-1.968a2.081 2.081 0 0 0-.768-1.024c-.352-.245-.795-.368-1.328-.368-.747 0-1.344.267-1.792.8-.437.523-.656 1.259-.656 2.208 0 .95.219 1.69.656 2.224.448.533 1.045.8 1.792.8 1.056 0 1.755-.464 2.096-1.392h1.968c-.256.896-.736 1.61-1.44 2.144-.704.523-1.579.784-2.624.784-.843 0-1.589-.187-2.24-.56a4.101 4.101 0 0 1-1.536-1.6c-.363-.693-.544-1.493-.544-2.4Zm12.33-2.912v4.88c0 .33.074.57.224.72.16.139.426.208.8.208h1.12V36h-1.44c-.822 0-1.451-.192-1.888-.576-.438-.384-.656-1.008-.656-1.872v-4.88h-1.04v-1.488h1.04v-2.192h1.84v2.192h2.144v1.488h-2.144Zm11.905 2.704c0 .33-.021.63-.064.896h-6.736c.053.704.315 1.27.784 1.696.469.427 1.045.64 1.728.64.981 0 1.675-.41 2.08-1.232h1.968a4 4 0 0 1-1.456 2c-.693.512-1.557.768-2.592.768-.843 0-1.6-.187-2.272-.56a4.187 4.187 0 0 1-1.568-1.6c-.373-.693-.56-1.493-.56-2.4 0-.907.181-1.701.544-2.384a3.936 3.936 0 0 1 1.552-1.6c.672-.373 1.44-.56 2.304-.56.832 0 1.573.181 2.224.544a3.83 3.83 0 0 1 1.52 1.536c.363.65.544 1.403.544 2.256Zm-1.904-.576c-.011-.672-.251-1.21-.72-1.616-.469-.405-1.051-.608-1.744-.608-.629 0-1.168.203-1.616.608-.448.395-.715.933-.8 1.616h4.88Z"/>
</svg>
