<?xml version="1.0" encoding="UTF-8"?><svg id="CustomDirecte" xmlns="http://www.w3.org/2000/svg" xmlns:xlink="http://www.w3.org/1999/xlink" viewBox="0 0 1000 1000"><defs><style>.cls-1{fill:#fff;}.cls-2{fill:#a3133c;}.cls-3{fill:url(#Dégradé_sans_nom_64);}.cls-4{fill:#fe90a3;}.cls-5{opacity:.2;}.cls-5,.cls-6{isolation:isolate;}.cls-7{fill:#7f0f2f;}.cls-6{opacity:.1;}.cls-8{fill:#c8194a;}</style><linearGradient id="Dégradé_sans_nom_64" x1="153.96" y1="-346.23" x2="464" y2="190.75" gradientTransform="translate(0 752)" gradientUnits="userSpaceOnUse"><stop offset="0" stop-color="#c8194a"/><stop offset=".5" stop-color="#a3133c"/><stop offset="1" stop-color="#7f0f2f"/></linearGradient></defs><g><path class="cls-4" d="m425.71,87.59h-162.72c-26.01,0-47.09,17.72-47.09,39.59v164.16h0v508.93h256.89V127.17c0-21.86-21.08-39.59-47.09-39.59Z"/><path class="cls-8" d="m713.7,205.76l-140.92-81.36c-22.52-13-49.64-8.2-60.57,10.74L215.9,648.36v151.85s208.94.05,208.94.05l309.85-536.68c10.93-18.93,1.53-44.82-20.99-57.83Z"/><path class="cls-2" d="m896.77,448.38l-81.36-140.92c-13-22.52-38.89-31.92-57.83-20.99L215.9,599.21v201s165.56.05,165.56.05l504.57-291.31c18.93-10.93,23.74-38.05,10.74-60.57Z"/><path class="cls-7" d="m888.99,543.47H215.9v256.79h673.09c21.86,0,39.59-21.07,39.59-47.07v-162.65c0-26-17.72-47.07-39.59-47.07Z"/></g><g><path class="cls-6" d="m590.25,800.26v-345.57c-.07-21.83-17.75-39.51-39.59-39.59H215.9v385.15h374.35Z"/><path class="cls-5" d="m568.65,800.26v-323.97c-.07-21.83-17.75-39.51-39.59-39.59H216.9l-.67,363.56h352.42Z"/><path class="cls-5" d="m568.65,800.26v-323.97c-.07-21.83-17.75-39.51-39.59-39.59H216.9l-.73,363.56h352.48Z"/></g><g><path class="cls-3" d="m111.01,436.7h395.95c21.86,0,39.59,17.72,39.59,39.59v395.95c0,21.86-17.72,39.59-39.59,39.59H111.01c-21.86,0-39.59-17.72-39.59-39.59v-395.95c0-21.86,17.72-39.59,39.59-39.59Z"/><path class="cls-1" d="m398.77,790.06c-12.79,6.1-25.24,10.51-37.32,13.2-12.09,2.7-25.24,4.05-39.44,4.05-38.73,0-69.04-11.27-90.93-33.8-21.89-22.54-32.83-53.46-32.83-92.78s12.12-72.12,36.36-97c24.23-24.88,55.9-37.32,94.98-37.32,12.79,0,24.53,1.06,35.21,3.17,10.68,2.11,21.54,5.52,32.57,10.21l-14.08,35.03c-8.8-3.75-17.4-6.48-25.79-8.19-8.39-1.7-17.46-2.55-27.2-2.55-25.24,0-46.01,8.42-62.32,25.26-16.31,16.84-24.47,39.7-24.47,68.57s7.48,50.79,22.45,67.16c14.96,16.37,35.18,24.56,60.65,24.56,8.45,0,17.37-1.11,26.76-3.34,9.39-2.23,19.01-5.87,28.87-10.92l16.55,34.68Z"/></g></svg>