<svg xmlns="http://www.w3.org/2000/svg" width="238" height="98" fill="none" viewBox="0 0 238 98">
  <rect width="236.017" height="97" x=".5" y=".5" fill="#F9F9F9" stroke="#E6E6E6" rx="17.5"/>
  <path fill="#000" d="M91.912 39.64v-1.992h4.512V55h-2.208V39.64h-2.304Zm11.432 6.336c-.896-.352-1.584-.864-2.064-1.536s-.72-1.488-.72-2.448c0-.864.216-1.64.648-2.328.432-.704 1.072-1.256 1.92-1.656.864-.416 1.904-.624 3.12-.624 1.216 0 2.248.208 3.096.624.864.4 1.512.952 1.944 1.656.448.688.672 1.464.672 2.328 0 .928-.248 1.744-.744 2.448-.496.688-1.176 1.2-2.04 1.536.992.304 1.776.84 2.352 1.608.592.752.888 1.664.888 2.736 0 1.04-.256 1.952-.768 2.736-.512.768-1.24 1.368-2.184 1.8-.928.416-2 .624-3.216.624-1.216 0-2.288-.208-3.216-.624-.912-.432-1.624-1.032-2.136-1.8-.512-.784-.768-1.696-.768-2.736 0-1.072.288-1.992.864-2.76.575-.768 1.36-1.296 2.352-1.584Zm6.504-3.72c0-.976-.32-1.728-.96-2.256-.64-.528-1.52-.792-2.64-.792-1.104 0-1.976.264-2.616.792-.64.528-.96 1.288-.96 2.28 0 .896.328 1.616.984 2.16.672.544 1.536.816 2.592.816 1.072 0 1.936-.272 2.592-.816.672-.56 1.008-1.288 1.008-2.184Zm-3.6 4.68c-1.184 0-2.152.28-2.904.84-.752.544-1.129 1.368-1.129 2.472 0 1.024.361 1.848 1.081 2.472.736.624 1.72.936 2.952.936s2.208-.312 2.928-.936c.72-.624 1.08-1.448 1.08-2.472 0-1.072-.368-1.888-1.104-2.448-.736-.576-1.704-.864-2.904-.864Zm11.684 5.04-2.688 6.456h-1.464l1.752-6.456h2.4Zm1.878 1.272c2.032-1.632 3.624-2.968 4.776-4.008 1.152-1.056 2.12-2.152 2.904-3.288.8-1.152 1.2-2.28 1.2-3.384 0-1.04-.256-1.856-.768-2.448-.496-.608-1.304-.912-2.424-.912-1.088 0-1.936.344-2.544 1.032-.592.672-.912 1.576-.96 2.712h-2.112c.064-1.792.608-3.176 1.632-4.152s2.344-1.464 3.96-1.464c1.648 0 2.952.456 3.912 1.368.976.912 1.464 2.168 1.464 3.768 0 1.328-.4 2.624-1.2 3.888a17.127 17.127 0 0 1-2.688 3.312c-1.008.944-2.296 2.048-3.864 3.312h8.256v1.824H119.81v-1.56Zm25.133-13.704h-8.424v5.472c.368-.512.912-.928 1.632-1.248a5.437 5.437 0 0 1 2.328-.504c1.328 0 2.408.28 3.24.84.832.544 1.424 1.256 1.776 2.136a6.97 6.97 0 0 1 .552 2.76c0 1.152-.216 2.184-.648 3.096a4.898 4.898 0 0 1-1.992 2.16c-.88.528-1.976.792-3.288.792-1.68 0-3.04-.432-4.08-1.296-1.04-.864-1.672-2.016-1.896-3.456h2.136c.208.912.648 1.624 1.32 2.136s1.52.768 2.544.768c1.264 0 2.216-.376 2.856-1.128.64-.768.96-1.776.96-3.024s-.32-2.208-.96-2.88c-.64-.688-1.584-1.032-2.832-1.032-.848 0-1.592.208-2.232.624-.624.4-1.08.952-1.368 1.656h-2.064v-9.792h10.44v1.92Z"/>
</svg>
