<svg xmlns="http://www.w3.org/2000/svg" width="238" height="98" fill="none" viewBox="0 0 238 98">
  <rect width="236.017" height="97" x=".5" y=".5" fill="#F9F9F9" stroke="#E6E6E6" rx="17.5"/>
  <rect width="142" height="30" x="12" y="33" fill="#23C552" rx="8"/>
  <path fill="#23C552" d="m164 49-10.5 6.062V42.938L164 49Z"/>
  <path fill="#fff" d="M75.284 54.809H73.87v1.449h-.742v-1.449h-1.414v-.672h1.414v-1.449h.742v1.449h1.414v.672Zm1.028-2.184v-.728h1.456V57h-.805v-4.375h-.65Zm3.532 3.416-.847 1.932h-.518l.497-1.932h.868Zm1.034-.126c.448-.387.8-.705 1.057-.952a4.34 4.34 0 0 0 .65-.784 1.5 1.5 0 0 0 .26-.812c0-.28-.068-.5-.203-.658-.131-.159-.339-.238-.623-.238-.276 0-.49.089-.644.266-.15.173-.23.406-.238.7h-.77c.014-.532.172-.938.476-1.218.308-.285.697-.427 1.169-.427.508 0 .905.14 1.19.42.289.28.434.653.434 1.12 0 .336-.087.66-.26.973a3.861 3.861 0 0 1-.608.833c-.234.243-.532.525-.896.847l-.315.28h2.219v.665h-3.402v-.581l.504-.434Zm6.889-3.332h-2.345v1.393c.098-.13.242-.24.434-.329.196-.089.403-.133.623-.133.392 0 .709.084.952.252.247.168.422.38.525.637.107.257.16.527.16.812 0 .345-.067.653-.202.924a1.46 1.46 0 0 1-.595.63c-.262.154-.584.231-.966.231-.509 0-.917-.126-1.225-.378a1.53 1.53 0 0 1-.553-1.001h.777a.88.88 0 0 0 .343.525c.177.126.399.189.665.189.331 0 .578-.1.742-.301.168-.2.252-.467.252-.798 0-.336-.084-.593-.252-.77-.168-.182-.416-.273-.742-.273a.954.954 0 0 0-.581.175.949.949 0 0 0-.336.462h-.756v-2.947h3.08v.7ZM21.323 40.135V45h-.798v-4.865h.798Zm2.994.945c.303 0 .574.063.812.189.242.126.431.313.567.56.135.247.203.546.203.896V45h-.791v-2.156c0-.345-.087-.609-.26-.791-.172-.187-.408-.28-.706-.28-.299 0-.537.093-.714.28-.173.182-.26.446-.26.791V45h-.797v-3.857h.798v.441c.13-.159.296-.282.497-.371.205-.089.422-.133.65-.133Zm4.217.714h-.714V45h-.805v-3.206h-.455v-.651h.455v-.273c0-.443.116-.765.35-.966.238-.205.609-.308 1.113-.308v.665c-.243 0-.413.047-.511.14-.098.089-.147.245-.147.469v.273h.714v.651Zm1.505-1.974V45h-.798v-5.18h.798Zm4.54 1.323V45h-.797v-.455a1.316 1.316 0 0 1-.497.378 1.573 1.573 0 0 1-.644.133 1.75 1.75 0 0 1-.82-.189 1.393 1.393 0 0 1-.567-.56c-.135-.247-.203-.546-.203-.896v-2.268h.792v2.149c0 .345.086.611.259.798.172.182.408.273.707.273.298 0 .534-.091.707-.273.177-.187.266-.453.266-.798v-2.149h.798Zm4.588 1.834c0 .145-.009.275-.028.392h-2.947c.024.308.138.555.343.742.206.187.458.28.756.28.43 0 .733-.18.91-.539h.861a1.749 1.749 0 0 1-.637.875c-.303.224-.68.336-1.134.336-.368 0-.7-.082-.994-.245a1.831 1.831 0 0 1-.686-.7 2.18 2.18 0 0 1-.245-1.05c0-.397.08-.744.238-1.043.164-.303.39-.537.68-.7a2.04 2.04 0 0 1 1.007-.245c.364 0 .689.08.973.238.285.159.507.383.665.672.16.285.238.614.238.987Zm-.833-.252a.908.908 0 0 0-.315-.707 1.126 1.126 0 0 0-.763-.266c-.275 0-.51.089-.707.266-.196.173-.312.408-.35.707h2.135ZM41.9 41.08c.303 0 .574.063.812.189.242.126.431.313.567.56.135.247.203.546.203.896V45h-.791v-2.156c0-.345-.087-.609-.26-.791-.172-.187-.408-.28-.706-.28-.299 0-.537.093-.714.28-.173.182-.26.446-.26.791V45h-.797v-3.857h.798v.441c.13-.159.296-.282.497-.371.205-.089.422-.133.65-.133Zm2.334 1.988c0-.397.079-.744.238-1.043.163-.303.387-.537.672-.7.284-.163.611-.245.98-.245.466 0 .851.112 1.155.336.308.22.515.534.623.945h-.861a.91.91 0 0 0-.336-.448.992.992 0 0 0-.581-.161.972.972 0 0 0-.784.35c-.192.229-.287.55-.287.966 0 .415.095.74.287.973.196.233.457.35.784.35.462 0 .767-.203.917-.609h.86a1.741 1.741 0 0 1-.63.938c-.307.229-.69.343-1.147.343-.369 0-.696-.082-.98-.245a1.797 1.797 0 0 1-.672-.7 2.233 2.233 0 0 1-.238-1.05Zm7.998-.091c0 .145-.01.275-.028.392h-2.947c.023.308.138.555.343.742.205.187.457.28.756.28.43 0 .733-.18.91-.539h.86a1.75 1.75 0 0 1-.636.875c-.303.224-.681.336-1.134.336-.369 0-.7-.082-.994-.245a1.831 1.831 0 0 1-.686-.7 2.18 2.18 0 0 1-.245-1.05c0-.397.08-.744.238-1.043.163-.303.39-.537.679-.7a2.04 2.04 0 0 1 1.008-.245c.364 0 .688.08.973.238.285.159.506.383.665.672.159.285.238.614.238.987Zm-.833-.252a.908.908 0 0 0-.315-.707 1.126 1.126 0 0 0-.763-.266 1.02 1.02 0 0 0-.707.266c-.196.173-.313.408-.35.707h2.135Zm4.837 2.338c-.304 0-.577-.054-.82-.161a1.48 1.48 0 0 1-.566-.448 1.133 1.133 0 0 1-.224-.637h.826a.578.578 0 0 0 .23.413.88.88 0 0 0 .54.161c.224 0 .396-.042.518-.126.126-.089.189-.2.189-.336 0-.145-.07-.252-.21-.322a3.738 3.738 0 0 0-.651-.231 6.299 6.299 0 0 1-.707-.231 1.27 1.27 0 0 1-.476-.343c-.131-.154-.196-.357-.196-.609a.93.93 0 0 1 .182-.56c.12-.173.294-.308.518-.406.228-.098.49-.147.784-.147.438 0 .79.112 1.057.336.27.22.415.52.434.903h-.798a.568.568 0 0 0-.21-.413c-.126-.103-.297-.154-.511-.154-.21 0-.371.04-.483.119a.368.368 0 0 0-.168.315.34.34 0 0 0 .112.259c.074.07.165.126.273.168.107.037.266.086.476.147.28.075.508.152.686.231.182.075.338.187.469.336.13.15.198.348.203.595a1 1 0 0 1-.182.588 1.204 1.204 0 0 1-.518.406c-.22.098-.479.147-.777.147Zm5.832-3.92V45h-.798v-.455a1.316 1.316 0 0 1-.497.378 1.57 1.57 0 0 1-.644.133 1.75 1.75 0 0 1-.82-.189 1.393 1.393 0 0 1-.566-.56c-.136-.247-.203-.546-.203-.896v-2.268h.79v2.149c0 .345.087.611.26.798.172.182.408.273.707.273.298 0 .534-.091.707-.273.177-.187.266-.453.266-.798v-2.149h.798Zm1.85.56c.117-.196.271-.348.463-.455.196-.112.427-.168.693-.168v.826h-.203c-.313 0-.55.08-.714.238-.159.159-.238.434-.238.826V45h-.798v-3.857h.798v.56Zm4.506-1.883V45h-.798v-5.18h.798Zm.781 3.234c0-.387.08-.73.238-1.029a1.777 1.777 0 0 1 1.582-.945c.304 0 .567.06.791.182.229.117.411.264.546.441v-.56h.805V45h-.805v-.574c-.135.182-.32.334-.553.455a1.706 1.706 0 0 1-.798.182c-.331 0-.634-.084-.91-.252a1.87 1.87 0 0 1-.658-.714 2.244 2.244 0 0 1-.238-1.043Zm3.157.014c0-.266-.056-.497-.168-.693a1.13 1.13 0 0 0-1.575-.448 1.128 1.128 0 0 0-.434.441c-.107.191-.16.42-.16.686 0 .266.053.5.16.7.112.2.257.355.434.462a1.151 1.151 0 0 0 1.148 0 1.13 1.13 0 0 0 .427-.448c.112-.2.168-.434.168-.7Zm8.34-1.988c.304 0 .575.063.813.189.243.126.431.313.567.56.14.247.21.546.21.896V45H81.5v-2.156c0-.345-.087-.609-.26-.791-.172-.187-.407-.28-.706-.28s-.537.093-.714.28c-.173.182-.26.446-.26.791V45h-.79v-2.156c0-.345-.087-.609-.26-.791-.172-.187-.407-.28-.706-.28s-.537.093-.714.28c-.173.182-.26.446-.26.791V45h-.797v-3.857h.798v.441c.13-.159.296-.282.497-.371.2-.089.415-.133.644-.133.308 0 .583.065.826.196.242.13.43.32.56.567.117-.233.298-.418.546-.553.247-.14.513-.21.798-.21Zm4.278 3.983c-.364 0-.693-.082-.987-.245a1.816 1.816 0 0 1-.693-.7 2.131 2.131 0 0 1-.252-1.05c0-.392.087-.74.26-1.043.172-.303.408-.537.706-.7a2.052 2.052 0 0 1 1.001-.245c.369 0 .703.082 1.001.245.299.163.535.397.707.7.173.303.26.651.26 1.043 0 .392-.09.74-.267 1.043a1.86 1.86 0 0 1-.728.707c-.303.163-.64.245-1.008.245Zm0-.693c.206 0 .397-.049.574-.147.182-.098.33-.245.441-.441.112-.196.168-.434.168-.714 0-.28-.053-.516-.16-.707a1.082 1.082 0 0 0-.428-.441 1.168 1.168 0 0 0-.574-.147 1.17 1.17 0 0 0-.574.147c-.172.098-.31.245-.413.441a1.48 1.48 0 0 0-.154.707c0 .415.105.737.315.966.215.224.483.336.805.336Zm6.263-3.227-2.366 5.67h-.826l.784-1.876-1.519-3.794h.89l1.084 2.94 1.127-2.94h.826Zm4.137 1.834c0 .145-.009.275-.028.392h-2.947c.024.308.138.555.343.742.206.187.458.28.756.28.43 0 .733-.18.91-.539h.861a1.749 1.749 0 0 1-.637.875c-.303.224-.681.336-1.134.336-.368 0-.7-.082-.994-.245a1.831 1.831 0 0 1-.686-.7 2.18 2.18 0 0 1-.245-1.05c0-.397.08-.744.238-1.043.164-.303.39-.537.68-.7a2.04 2.04 0 0 1 1.007-.245c.364 0 .689.08.973.238.285.159.507.383.665.672.159.285.238.614.238.987Zm-.833-.252a.908.908 0 0 0-.315-.707 1.126 1.126 0 0 0-.763-.266c-.275 0-.51.089-.707.266-.196.173-.312.408-.35.707h2.135Zm3.565-1.645c.303 0 .574.063.812.189.242.126.431.313.567.56.135.247.203.546.203.896V45h-.791v-2.156c0-.345-.087-.609-.26-.791-.172-.187-.408-.28-.706-.28-.299 0-.537.093-.714.28-.173.182-.26.446-.26.791V45h-.797v-3.857h.798v.441c.13-.159.296-.282.497-.371.205-.089.422-.133.65-.133Zm4.546 0c.303 0 .574.063.812.189.242.126.431.313.567.56.135.247.203.546.203.896V45h-.791v-2.156c0-.345-.087-.609-.259-.791-.173-.187-.409-.28-.707-.28-.299 0-.537.093-.714.28-.173.182-.259.446-.259.791V45h-.798v-3.857h.798v.441c.13-.159.296-.282.497-.371.205-.089.422-.133.651-.133Zm6.134 1.897c0 .145-.009.275-.028.392h-2.947c.024.308.138.555.343.742.206.187.458.28.756.28.43 0 .733-.18.91-.539h.861a1.745 1.745 0 0 1-.637.875c-.303.224-.681.336-1.134.336-.368 0-.7-.082-.994-.245a1.833 1.833 0 0 1-.686-.7 2.184 2.184 0 0 1-.245-1.05c0-.397.08-.744.238-1.043.164-.303.39-.537.679-.7a2.04 2.04 0 0 1 1.008-.245c.364 0 .689.08.973.238.285.159.507.383.665.672.159.285.238.614.238.987Zm-.833-.252a.904.904 0 0 0-.315-.707 1.125 1.125 0 0 0-.763-.266 1.02 1.02 0 0 0-.707.266c-.196.173-.312.408-.35.707h2.135Zm4.991-1.645c.299 0 .562.06.791.182a1.5 1.5 0 0 1 .546.441v-.56h.805v3.92c0 .355-.075.67-.224.945a1.6 1.6 0 0 1-.651.658c-.28.159-.616.238-1.008.238-.523 0-.957-.124-1.302-.371a1.347 1.347 0 0 1-.588-.994h.791a.85.85 0 0 0 .385.483c.201.126.439.189.714.189.322 0 .581-.098.777-.294.201-.196.301-.48.301-.854v-.644a1.648 1.648 0 0 1-1.337.644c-.336 0-.644-.084-.924-.252a1.87 1.87 0 0 1-.658-.714 2.24 2.24 0 0 1-.238-1.043c0-.387.079-.73.238-1.029a1.777 1.777 0 0 1 1.582-.945Zm1.337 1.988c0-.266-.056-.497-.168-.693a1.13 1.13 0 0 0-1.575-.448 1.13 1.13 0 0 0-.434.441c-.107.191-.161.42-.161.686 0 .266.054.5.161.7.112.2.257.355.434.462a1.15 1.15 0 0 0 1.148 0 1.13 1.13 0 0 0 .427-.448c.112-.2.168-.434.168-.7Zm5.388-.091c0 .145-.009.275-.028.392H116.7c.024.308.138.555.343.742.206.187.458.28.756.28.43 0 .733-.18.91-.539h.861a1.745 1.745 0 0 1-.637.875c-.303.224-.681.336-1.134.336-.368 0-.7-.082-.994-.245a1.833 1.833 0 0 1-.686-.7 2.184 2.184 0 0 1-.245-1.05c0-.397.08-.744.238-1.043.164-.303.39-.537.679-.7a2.04 2.04 0 0 1 1.008-.245c.364 0 .689.08.973.238.285.159.507.383.665.672.159.285.238.614.238.987Zm-.833-.252a.904.904 0 0 0-.315-.707 1.125 1.125 0 0 0-.763-.266 1.02 1.02 0 0 0-.707.266c-.196.173-.312.408-.35.707h2.135Zm-.343-2.618-1.547.763v-.588l1.547-.854v.679Zm3.908.973c.303 0 .574.063.812.189.242.126.431.313.567.56.135.247.203.546.203.896V45h-.791v-2.156c0-.345-.087-.609-.259-.791-.173-.187-.409-.28-.707-.28-.299 0-.537.093-.714.28-.173.182-.259.446-.259.791V45h-.798v-3.857h.798v.441c.13-.159.296-.282.497-.371.205-.089.422-.133.651-.133Zm6.134 1.897c0 .145-.009.275-.028.392h-2.947c.024.308.138.555.343.742.206.187.458.28.756.28.43 0 .733-.18.91-.539h.861a1.745 1.745 0 0 1-.637.875c-.303.224-.681.336-1.134.336-.368 0-.7-.082-.994-.245a1.833 1.833 0 0 1-.686-.7 2.184 2.184 0 0 1-.245-1.05c0-.397.08-.744.238-1.043.164-.303.39-.537.679-.7a2.04 2.04 0 0 1 1.008-.245c.364 0 .689.08.973.238.285.159.507.383.665.672.159.285.238.614.238.987Zm-.833-.252a.904.904 0 0 0-.315-.707 1.125 1.125 0 0 0-.763-.266 1.02 1.02 0 0 0-.707.266c-.196.173-.312.408-.35.707h2.135Zm-.343-2.618-1.547.763v-.588l1.547-.854v.679Zm2.76 1.596c.116-.196.27-.348.462-.455.196-.112.427-.168.693-.168v.826h-.203c-.313 0-.551.08-.714.238-.159.159-.238.434-.238.826V45h-.798v-3.857h.798v.56Zm1.622 1.351c0-.387.08-.73.238-1.029a1.784 1.784 0 0 1 1.582-.945c.304 0 .567.06.791.182.229.117.411.264.546.441v-.56h.805V45h-.805v-.574a1.575 1.575 0 0 1-.553.455 1.703 1.703 0 0 1-.798.182c-.331 0-.634-.084-.91-.252a1.879 1.879 0 0 1-.658-.714 2.252 2.252 0 0 1-.238-1.043Zm3.157.014c0-.266-.056-.497-.168-.693a1.124 1.124 0 0 0-1.001-.602c-.205 0-.396.051-.574.154a1.13 1.13 0 0 0-.434.441c-.107.191-.161.42-.161.686 0 .266.054.5.161.7.112.2.257.355.434.462a1.153 1.153 0 0 0 1.148 0c.178-.103.32-.252.427-.448.112-.2.168-.434.168-.7Zm2.651-3.248V45h-.798v-5.18h.798Zm4.583 3.157c0 .145-.009.275-.028.392h-2.947c.023.308.138.555.343.742.205.187.457.28.756.28.429 0 .733-.18.91-.539h.861a1.751 1.751 0 0 1-.637.875c-.303.224-.681.336-1.134.336-.369 0-.7-.082-.994-.245a1.833 1.833 0 0 1-.686-.7 2.184 2.184 0 0 1-.245-1.05c0-.397.079-.744.238-1.043.163-.303.39-.537.679-.7a2.04 2.04 0 0 1 1.008-.245c.364 0 .688.08.973.238.285.159.506.383.665.672.159.285.238.614.238.987Zm-.833-.252a.91.91 0 0 0-.315-.707 1.126 1.126 0 0 0-.763-.266 1.02 1.02 0 0 0-.707.266c-.196.173-.313.408-.35.707h2.135Zm3.759 2.324a.494.494 0 0 1-.364-.147.494.494 0 0 1-.147-.364c0-.145.049-.266.147-.364a.494.494 0 0 1 .364-.147c.14 0 .259.049.357.147.098.098.147.22.147.364a.494.494 0 0 1-.147.364.486.486 0 0 1-.357.147Zm0-2.94a.494.494 0 0 1-.364-.147.494.494 0 0 1-.147-.364c0-.145.049-.266.147-.364a.494.494 0 0 1 .364-.147c.14 0 .259.049.357.147.098.098.147.22.147.364a.494.494 0 0 1-.147.364.486.486 0 0 1-.357.147Z"/>
  <path fill="#000" d="M168.912 38.64v-1.992h4.512V54h-2.208V38.64h-2.304Zm11.432 6.336c-.896-.352-1.584-.864-2.064-1.536s-.72-1.488-.72-2.448c0-.864.216-1.64.648-2.328.432-.704 1.072-1.256 1.92-1.656.864-.416 1.904-.624 3.12-.624 1.216 0 2.248.208 3.096.624.864.4 1.512.952 1.944 1.656.448.688.672 1.464.672 2.328 0 .928-.248 1.744-.744 2.448-.496.688-1.176 1.2-2.04 1.536.992.304 1.776.84 2.352 1.608.592.752.888 1.664.888 2.736 0 1.04-.256 1.952-.768 2.736-.512.768-1.24 1.368-2.184 1.8-.928.416-2 .624-3.216.624-1.216 0-2.288-.208-3.216-.624-.912-.432-1.624-1.032-2.136-1.8-.512-.784-.768-1.696-.768-2.736 0-1.072.288-1.992.864-2.76.575-.768 1.36-1.296 2.352-1.584Zm6.504-3.72c0-.976-.32-1.728-.96-2.256-.64-.528-1.52-.792-2.64-.792-1.104 0-1.976.264-2.616.792-.64.528-.96 1.288-.96 2.28 0 .896.328 1.616.984 2.16.672.544 1.536.816 2.592.816 1.072 0 1.936-.272 2.592-.816.672-.56 1.008-1.288 1.008-2.184Zm-3.6 4.68c-1.184 0-2.152.28-2.904.84-.752.544-1.129 1.368-1.129 2.472 0 1.024.361 1.848 1.081 2.472.736.624 1.72.936 2.952.936s2.208-.312 2.928-.936c.72-.624 1.08-1.448 1.08-2.472 0-1.072-.368-1.888-1.104-2.448-.736-.576-1.704-.864-2.904-.864Zm11.684 5.04-2.688 6.456h-1.464l1.752-6.456h2.4Zm1.878 1.272c2.032-1.632 3.624-2.968 4.776-4.008 1.152-1.056 2.12-2.152 2.904-3.288.8-1.152 1.2-2.28 1.2-3.384 0-1.04-.256-1.856-.768-2.448-.496-.608-1.304-.912-2.424-.912-1.088 0-1.936.344-2.544 1.032-.592.672-.912 1.576-.96 2.712h-2.112c.064-1.792.608-3.176 1.632-4.152s2.344-1.464 3.96-1.464c1.648 0 2.952.456 3.912 1.368.976.912 1.464 2.168 1.464 3.768 0 1.328-.4 2.624-1.2 3.888a17.127 17.127 0 0 1-2.688 3.312c-1.008.944-2.296 2.048-3.864 3.312h8.256v1.824H196.81v-1.56Zm25.133-13.704h-8.424v5.472c.368-.512.912-.928 1.632-1.248a5.437 5.437 0 0 1 2.328-.504c1.328 0 2.408.28 3.24.84.832.544 1.424 1.256 1.776 2.136a6.97 6.97 0 0 1 .552 2.76c0 1.152-.216 2.184-.648 3.096a4.898 4.898 0 0 1-1.992 2.16c-.88.528-1.976.792-3.288.792-1.68 0-3.04-.432-4.08-1.296-1.04-.864-1.672-2.016-1.896-3.456h2.136c.208.912.648 1.624 1.32 2.136s1.52.768 2.544.768c1.264 0 2.216-.376 2.856-1.128.64-.768.96-1.776.96-3.024s-.32-2.208-.96-2.88c-.64-.688-1.584-1.032-2.832-1.032-.848 0-1.592.208-2.232.624-.624.4-1.08.952-1.368 1.656h-2.064v-9.792h10.44v1.92Z"/>
</svg>
