<svg xmlns="http://www.w3.org/2000/svg" width="176" height="98" fill="none" viewBox="0 0 176 98">
  <rect width="175" height="97" x=".5" y=".5" fill="#F9F9F9" stroke="#E6E6E6" rx="17.5"/>
  <path fill="#000" d="M60.912 20.64v-1.992h4.512V36h-2.208V20.64h-2.304Zm11.432 6.336c-.896-.352-1.584-.864-2.064-1.536s-.72-1.488-.72-2.448c0-.864.215-1.64.647-2.328.433-.704 1.073-1.256 1.92-1.656.865-.416 1.904-.624 3.12-.624 1.216 0 2.249.208 3.097.624.864.4 1.512.952 1.944 1.656.448.688.672 1.464.672 2.328 0 .928-.248 1.744-.744 2.448-.496.688-1.176 1.2-2.04 1.536.992.304 1.775.84 2.352 1.608.591.752.887 1.664.887 2.736 0 1.04-.256 1.952-.768 2.736-.512.768-1.24 1.368-2.184 1.8-.927.416-2 .624-3.215.624-1.217 0-2.288-.208-3.217-.624-.912-.432-1.624-1.032-2.136-1.8-.511-.784-.767-1.696-.767-2.736 0-1.072.287-1.992.864-2.76.575-.768 1.36-1.296 2.352-1.584Zm6.504-3.72c0-.976-.32-1.728-.96-2.256-.64-.528-1.52-.792-2.64-.792-1.105 0-1.977.264-2.617.792-.64.528-.96 1.288-.96 2.28 0 .896.328 1.616.984 2.16.672.544 1.537.816 2.593.816 1.072 0 1.935-.272 2.591-.816.672-.56 1.008-1.288 1.008-2.184Zm-3.6 4.68c-1.184 0-2.153.28-2.904.84-.752.544-1.128 1.368-1.128 2.472 0 1.024.36 1.848 1.08 2.472.735.624 1.72.936 2.951.936 1.233 0 2.209-.312 2.928-.936.72-.624 1.08-1.448 1.08-2.472 0-1.072-.367-1.888-1.103-2.448-.737-.576-1.704-.864-2.904-.864Zm11.684 5.04-2.688 6.456H82.78l1.752-6.456h2.4Zm1.878 1.272c2.032-1.632 3.624-2.968 4.776-4.008 1.152-1.056 2.12-2.152 2.904-3.288.8-1.152 1.2-2.28 1.2-3.384 0-1.04-.256-1.856-.768-2.448-.496-.608-1.304-.912-2.424-.912-1.088 0-1.936.344-2.544 1.032-.592.672-.912 1.576-.96 2.712h-2.112c.064-1.792.608-3.176 1.632-4.152s2.344-1.464 3.96-1.464c1.648 0 2.952.456 3.912 1.368.976.912 1.464 2.168 1.464 3.768 0 1.328-.4 2.624-1.2 3.888a17.127 17.127 0 0 1-2.688 3.312c-1.008.944-2.296 2.048-3.864 3.312h8.256v1.824H88.81v-1.56Zm25.133-13.704h-8.424v5.472c.368-.512.912-.928 1.632-1.248a5.437 5.437 0 0 1 2.328-.504c1.328 0 2.408.28 3.24.84.832.544 1.424 1.256 1.776 2.136a6.97 6.97 0 0 1 .552 2.76c0 1.152-.216 2.184-.648 3.096a4.898 4.898 0 0 1-1.992 2.16c-.88.528-1.976.792-3.288.792-1.68 0-3.04-.432-4.08-1.296-1.04-.864-1.672-2.016-1.896-3.456h2.136c.208.912.648 1.624 1.32 2.136s1.52.768 2.544.768c1.264 0 2.216-.376 2.856-1.128.64-.768.96-1.776.96-3.024s-.32-2.208-.96-2.88c-.64-.688-1.584-1.032-2.832-1.032-.848 0-1.592.208-2.232.624-.624.4-1.08.952-1.368 1.656h-2.064v-9.792h10.44v1.92Zm-43.249 51.8c.16.912.528 1.616 1.104 2.112.592.496 1.384.744 2.376.744 1.328 0 2.304-.52 2.928-1.56.64-1.04.944-2.792.912-5.256-.336.72-.896 1.288-1.68 1.704-.784.4-1.656.6-2.616.6-1.072 0-2.032-.216-2.88-.648a4.895 4.895 0 0 1-1.968-1.944c-.48-.848-.72-1.872-.72-3.072 0-1.712.496-3.088 1.488-4.128.992-1.056 2.4-1.584 4.224-1.584 2.24 0 3.808.728 4.704 2.184.912 1.456 1.368 3.624 1.368 6.504 0 2.016-.184 3.68-.552 4.992-.352 1.312-.96 2.312-1.824 3-.848.688-2.016 1.032-3.504 1.032-1.632 0-2.904-.44-3.816-1.32-.912-.88-1.432-2-1.56-3.36h2.016Zm3.384-3.504c1.072 0 1.952-.328 2.64-.984.688-.672 1.032-1.576 1.032-2.712 0-1.2-.336-2.168-1.008-2.904-.672-.736-1.616-1.104-2.832-1.104-1.12 0-2.016.352-2.688 1.056-.656.704-.984 1.632-.984 2.784 0 1.168.328 2.104.984 2.808.656.704 1.608 1.056 2.856 1.056Zm11.542 5.136-2.688 6.456h-1.464l1.752-6.456h2.4Zm2.141-5.832c0-2.752.448-4.896 1.344-6.432.896-1.552 2.464-2.328 4.704-2.328 2.224 0 3.784.776 4.68 2.328.896 1.536 1.344 3.68 1.344 6.432 0 2.8-.448 4.976-1.344 6.528C97.593 76.224 96.033 77 93.81 77c-2.24 0-3.808-.776-4.704-2.328-.896-1.552-1.344-3.728-1.344-6.528Zm9.912 0c0-1.392-.096-2.568-.288-3.528-.176-.976-.552-1.76-1.128-2.352-.56-.592-1.376-.888-2.448-.888-1.088 0-1.92.296-2.496.888-.56.592-.936 1.376-1.128 2.352-.176.96-.264 2.136-.264 3.528 0 1.44.088 2.648.264 3.624.192.976.568 1.76 1.128 2.352.576.592 1.408.888 2.496.888 1.072 0 1.888-.296 2.448-.888.576-.592.952-1.376 1.128-2.352.192-.976.288-2.184.288-3.624Zm16.223-6.6h-8.424v5.472c.368-.512.912-.928 1.632-1.248a5.437 5.437 0 0 1 2.328-.504c1.328 0 2.408.28 3.24.84.832.544 1.424 1.256 1.776 2.136A6.97 6.97 0 0 1 115 71c0 1.152-.216 2.184-.648 3.096a4.898 4.898 0 0 1-1.992 2.16c-.88.528-1.976.792-3.288.792-1.68 0-3.04-.432-4.08-1.296-1.04-.864-1.672-2.016-1.896-3.456h2.136c.208.912.648 1.624 1.32 2.136s1.52.768 2.544.768c1.264 0 2.216-.376 2.856-1.128.64-.768.96-1.776.96-3.024s-.32-2.208-.96-2.88c-.64-.688-1.584-1.032-2.832-1.032-.848 0-1.592.208-2.232.624-.624.4-1.08.952-1.368 1.656h-2.064v-9.792h10.44v1.92Z"/>
</svg>
