<?xml version="1.0" encoding="UTF-8"?><svg id="CustomDirecte_-_Couleurs" xmlns="http://www.w3.org/2000/svg" xmlns:xlink="http://www.w3.org/1999/xlink" viewBox="0 0 1000 1000"><defs><style>.cls-1{fill:url(#Dégradé_sans_nom_118);}.cls-2{fill:url(#Dégradé_sans_nom_115);}.cls-3{fill:#fff;}.cls-4{fill:url(#Dégradé_sans_nom_123);}.cls-5{fill:url(#Dégradé_sans_nom_64);}.cls-6{fill:url(#Dégradé_sans_nom_121);}.cls-7{opacity:.2;}.cls-7,.cls-8{isolation:isolate;}.cls-8{opacity:.1;}</style><linearGradient id="Dégradé_sans_nom_123" x1="100.85" y1="313.87" x2="588.93" y2="595.66" gradientUnits="userSpaceOnUse"><stop offset="0" stop-color="#19c89c"/><stop offset="1" stop-color="#0f8064"/></linearGradient><linearGradient id="Dégradé_sans_nom_121" x1="341.08" y1="431.55" x2="563.56" y2="560" gradientUnits="userSpaceOnUse"><stop offset="0" stop-color="#0f8fd1"/><stop offset="1" stop-color="#0e3e85"/></linearGradient><linearGradient id="Dégradé_sans_nom_118" x1="312.32" y1="432.22" x2="779.78" y2="702.11" gradientUnits="userSpaceOnUse"><stop offset="0" stop-color="#9c19c8"/><stop offset="1" stop-color="#640f80"/></linearGradient><linearGradient id="Dégradé_sans_nom_115" x1="245.58" y1="492.07" x2="877.23" y2="856.75" gradientUnits="userSpaceOnUse"><stop offset="0" stop-color="#c8194a"/><stop offset="1" stop-color="#7f0f2f"/></linearGradient><linearGradient id="Dégradé_sans_nom_64" x1="153.96" y1="-346.23" x2="464" y2="190.75" gradientTransform="translate(0 752)" gradientUnits="userSpaceOnUse"><stop offset="0" stop-color="#c8194a"/><stop offset=".5" stop-color="#a3133c"/><stop offset="1" stop-color="#7f0f2f"/></linearGradient></defs><g><path class="cls-4" d="m423.71,87.59h-162.72c-26.01,0-47.09,17.72-47.09,39.59v164.16h0v508.93h256.89V127.17c0-21.86-21.08-39.59-47.09-39.59Z"/><path class="cls-6" d="m713.7,205.76l-140.92-81.36c-22.52-13-49.64-8.2-60.57,10.74L215.9,648.36v151.85s208.94.05,208.94.05l309.85-536.68c10.93-18.93,1.53-44.82-20.99-57.83Z"/><path class="cls-1" d="m896.77,448.38l-81.36-140.92c-13-22.52-38.89-31.92-57.83-20.99L215.9,599.21v201s165.56.05,165.56.05l504.57-291.31c18.93-10.93,23.74-38.05,10.74-60.57Z"/><path class="cls-2" d="m888.99,543.48H215.9v256.79h673.09c21.86,0,39.59-21.07,39.59-47.07v-162.65c0-26-17.72-47.07-39.59-47.07Z"/></g><g><path class="cls-8" d="m590.25,800.26v-345.57c-.07-21.83-17.75-39.51-39.59-39.59H215.9v385.15h374.35Z"/><path class="cls-7" d="m568.65,800.26v-323.97c-.07-21.83-17.75-39.51-39.59-39.59H216.9l-.67,363.56h352.42Z"/><path class="cls-7" d="m568.65,800.26v-323.97c-.07-21.83-17.75-39.51-39.59-39.59H216.9l-.73,363.56h352.48Z"/></g><g><path class="cls-5" d="m111.01,436.71h395.95c21.86,0,39.59,17.72,39.59,39.59v395.95c0,21.86-17.72,39.59-39.59,39.59H111.01c-21.86,0-39.59-17.72-39.59-39.59v-395.95c0-21.86,17.72-39.59,39.59-39.59Z"/><path class="cls-3" d="m277.22,715.4v89.33h-43.5v-256.7h80.38c29.83,0,52.57,6.89,68.2,20.68,15.63,13.78,23.45,33.86,23.45,60.24s-8.8,46.48-26.4,62.48c-17.6,15.99-41.32,23.99-71.16,23.99h-30.97Zm0-131.75v96.31h27.21c18.26,0,32.04-4.18,41.35-12.53,9.31-8.35,13.96-20.52,13.96-36.52s-4.45-27.72-13.34-35.53c-8.89-7.81-22.23-11.72-40.01-11.72h-29.18Z"/><path class="cls-3" d="m489.92,476c9.97,0,18.08,8.11,18.08,18.08v360.85c0,9.97-8.11,18.08-18.08,18.08H129.08c-9.97,0-18.08-8.11-18.08-18.08v-360.85c0-9.97,8.11-18.08,18.08-18.08h360.85m0-18H129.08c-19.92,0-36.08,16.15-36.08,36.08v360.85c0,19.92,16.15,36.08,36.08,36.08h360.85c19.92,0,36.08-16.15,36.08-36.08v-360.85c0-19.92-16.15-36.08-36.08-36.08h0Z"/></g></svg>